<svg width="12" height="12" viewBox="0 0 12 12" fill="none" xmlns="http://www.w3.org/2000/svg">
<g opacity="0.6">
<path d="M0.179452 0.425205C0.418722 0.190371 0.806656 0.190371 1.04593 0.425205L11.7934 10.9735C12.0327 11.2083 12.0327 11.589 11.7934 11.8239C11.5541 12.0587 11.1662 12.0587 10.9269 11.8239L0.179453 1.27562C-0.0598174 1.04078 -0.0598176 0.66004 0.179452 0.425205Z" fill="white"/>
<path d="M11.8205 0.176126C12.0598 0.41096 12.0598 0.791702 11.8205 1.02654L1.07305 11.5748C0.833784 11.8096 0.44585 11.8096 0.20658 11.5748C-0.0326899 11.34 -0.0326899 10.9592 0.20658 10.7244L10.9541 0.176126C11.1933 -0.0587086 11.5813 -0.0587087 11.8205 0.176126Z" fill="white"/>
</g>
</svg>
