<svg width="28" height="28" viewBox="0 0 28 28" fill="none" xmlns="http://www.w3.org/2000/svg">
<path d="M21.3418 24.1581L25.3248 20.1751C25.781 19.719 25.781 18.9805 25.3248 18.5255L23.4745 16.6751C23.0183 16.219 22.2798 16.219 21.8248 16.6751L17.8418 20.6581C17.6225 20.8775 17.5 21.1738 17.5 21.483V24.5H20.517C20.8262 24.5 21.1225 24.3775 21.3418 24.1581V24.1581Z" stroke="white" stroke-width="1.5" stroke-linecap="round" stroke-linejoin="round"/>
<path d="M8.16699 16.3334H12.8337" stroke="white" stroke-width="1.5" stroke-linecap="round" stroke-linejoin="round"/>
<path d="M8.16699 10.5H17.5003" stroke="white" stroke-width="1.5" stroke-linecap="round" stroke-linejoin="round"/>
<path d="M22.1667 11.6666V8.16663C22.1667 6.23346 20.5998 4.66663 18.6667 4.66663H7C5.06683 4.66663 3.5 6.23346 3.5 8.16663V18.6666C3.5 20.5998 5.06683 22.1666 7 22.1666H12.8333" stroke="white" stroke-width="1.5" stroke-linecap="round" stroke-linejoin="round"/>
</svg>
